# xmcd
#
# Track frame offsets: 
#        150
#        15277
#        26947
#        40122
#        52885
#        66200
#        82305
#        96012
#        107890
#        120292
#        135732
#        146952
#        160067
#        174390
#        186540
#        200730
#
# Disc length: 2856 seconds
#
# Revision: 3
# Processed by: cddbd v1.5.1PL2 Copyright (c) Steve Scherf et al.
# Submitted via: ExactAudioCopy v0.95b3
#
DISCID=e20b2610
DTITLE=Jimmy Rodgers - Train Whistle Blues (1927-1932)
DYEAR=1986
DGENRE=Country
TTITLE0=Jimmy's Mean Mamma Blues
TTITLE1=The Southern Cannonball
TTITLE2=Jimmie The Kid
TTITLE3=Travellin' Blues
TTITLE4=The Mystery Of No. 5
TTITLE5=Memphis Yodel
TTITLE6=Blue Yodel No. 4 (California Blues)
TTITLE7=Hobo Bill's Last Ride
TTITLE8=Waiting For A Train
TTITLE9=Ben Dewberry's Final Run
TTITLE10=My Rough And Rowdy Ways
TTITLE11=Blue Yodel No. 7 (Anniversary Blue Yodel)
TTITLE12=The Brakeman's Blues (Yodelling The Blues Away)
TTITLE13=Let Me Be Your Side Track
TTITLE14=Hobo's Meditation
TTITLE15=Train Whistle Blues
EXTD=
EXTT0=1930/07/10
EXTT1=1931/06/17
EXTT2=1931/01/31
EXTT3=1931/01/31
EXTT4=1930/07/11
EXTT5=1928/02/15
EXTT6=1928/10/20
EXTT7=1929/11/13
EXTT8=1928/10/22
EXTT9=1927/11/30
EXTT10=1929/10/22
EXTT11=1929/11/26
EXTT12=1928/02/14
EXTT13=1931/06/11
EXTT14=1932/02/03
EXTT15=1929/08/08
PLAYORDER=
